<svg xmlns="http://www.w3.org/2000/svg"  viewBox="0 0 497.87 2014" >       
    <defs><style>.cls-1{fill-rule:evenodd; background-color: #fff}</style></defs>
    <g>
        <g transform="translate(0,30)" >
            <g stroke="green" fill="red" stroke-width="5">
                <circle cx="250" cy="230" r="180"/>
            </g>
            <path class="cls-1" d="M446.79,46.85C398.29,1.94,317.47,0,248.93,0S99.57,1.94,51.08,46.85C1.94,92.41,0,171.8,0,233c0,59.88,1.94,139.93,51.08,186.14C98.93,464,181.69,466,248.93,466s150-2,197.86-46.87c49.14-46.21,51.08-126.26,51.08-186.14C497.87,171.8,495.93,92.41,446.79,46.85ZM401.91,175c-3.91,35.11-20.81,64.52-40.34,92.62a502,502,0,0,1-33.49,42.51c-13.91,16-29,30.93-43.27,46.63-11.71,12.9-22.94,26.23-34,39-7.4-8.66-15-18.15-23.25-27.07C214,354,199.79,340,186.46,325.23c-19.59-21.7-38.4-44.05-54.12-68.85-13.65-21.55-25.43-43.92-30.88-69-5.2-24-3.45-47.1,11.41-67.74,12.75-17.71,29.57-29.92,51.23-33.93,16.38-3,32.29.26,47.38,7.18,14.45,6.63,27.66,15.13,38.69,26.47,7.15-5.42,13.94-11.08,21.24-16,14.42-9.73,30-16.38,47.67-18,20-1.87,36.93,4.27,52.37,16.36,10.72,8.39,19.25,18.47,24.71,30.92C402.09,146.08,403.55,160.19,401.91,175Z"/>
        </g>
        <g transform="translate(0,526)" >
            <g stroke="green" fill="red" stroke-width="5">
                <circle cx="250" cy="230" r="180"/>
            </g>
            <path class="cls-1" d="M446.79,46.85C398.29,1.94,317.47,0,248.93,0S99.57,1.94,51.08,46.85C1.94,92.41,0,171.8,0,233c0,59.88,1.94,139.93,51.08,186.14C98.93,464,181.69,466,248.93,466s150-2,197.86-46.87c49.14-46.21,51.08-126.26,51.08-186.14C497.87,171.8,495.93,92.41,446.79,46.85Zm-65.43,231c-.76,15.5-6,29.37-16.9,40.79-8.8,9.25-18.26,17.28-30.87,21.2a65.16,65.16,0,0,1-45.73-2.15c-8.93-3.74-17.33-8.74-26.2-13.3,6.37,26.29,18.52,49.93,36.39,71.61H201.5c17.15-21.83,29.69-45.32,36-71.29-9.42,4.62-18.62,10.21-28.55,13.78-23.15,8.32-44.86,5.4-64.53-10.31-12.67-10.12-21.41-22.64-24.93-38.41-3.14-14.07-1.92-28.15,1.91-42,6.79-24.57,19.48-46.1,34.09-66.68,16.87-23.75,36.45-45.12,56.69-66,12.05-12.44,22.92-26,34.28-39.13a23.11,23.11,0,0,0,2.2-3.38c9.38,10.43,18.85,21.15,28.54,31.66,10.69,11.6,21.91,22.72,32.34,34.54,22.75,25.78,44.28,52.47,58.89,84C376.56,240.25,382.31,258.36,381.36,277.88Z"/>
        </g>
        <g transform="translate(0,1022)" >
            <g stroke="green" fill="red" stroke-width="5">
                <circle cx="250" cy="230" r="180"/>
            </g>
            <path class="cls-1" d="M446.79,46.85C398.29,1.94,317.47,0,248.93,0S99.57,1.94,51.08,46.85C1.94,92.41,0,171.8,0,233c0,59.88,1.94,139.93,51.08,186.14C98.93,464,181.69,466,248.93,466s150-2,197.86-46.87c49.14-46.21,51.08-126.26,51.08-186.14C497.87,171.8,495.93,92.41,446.79,46.85ZM350.25,313.07c-24.81,12.1-65.17,11.54-92.76-24.32,1.12,20.8,4.94,39.48,12.09,57.63,7.07,17.92,17.13,34,29.12,49.67H201.64c12.07-15.7,22.2-31.95,29.19-50a175.77,175.77,0,0,0,12-57.61c-13.28,17.62-29.58,27.62-49.89,30.89-17.55,2.83-33.94-.8-49.12-9.58-13.6-7.87-23.39-19.46-29.73-33.81a72.61,72.61,0,0,1-5.86-32.44c.69-18.74,7.58-35.14,20.57-48.5s28.83-20.61,47.59-22c-8.25-36.52,1.33-66.95,34.18-86.22,26.47-15.52,54.39-13.6,79.72,4,21.79,15.14,37.28,44.55,27.64,81.75,40.7,2.76,67.21,23.51,73.33,64.07C396.49,271.42,379.26,298.93,350.25,313.07Z"/>
        </g>
        <g transform="translate(0,1518)" >
            <g stroke="green" fill="red" stroke-width="5">
                <circle cx="250" cy="230" r="180"/>
            </g>
            <path class="cls-1" d="M446.79,46.85C398.29,1.94,317.47,0,248.93,0S99.57,1.94,51.08,46.85C1.94,92.41,0,171.8,0,233c0,59.88,1.94,139.93,51.08,186.14C98.93,464,181.69,466,248.93,466s150-2,197.86-46.87c49.14-46.21,51.08-126.26,51.08-186.14C497.87,171.8,495.93,92.41,446.79,46.85ZM386.21,257.16c-8.95,9.76-18.09,19.36-27,29.11q-21.32,23.19-42.5,46.51-14.7,16.13-29.32,32.31c-7.94,8.83-15.79,17.76-23.68,26.64l-4.36,4.89-154.66-156q73.29-84.39,146.1-168.27c7.27,8.16,14.4,16.12,21.5,24.12q19.56,22,39.11,44.05c6.37,7.16,12.89,14.18,19.28,21.33q19.94,22.35,39.81,44.76c6.27,7,12.62,14,18.93,21L401,240.45C396,246.1,391.21,251.72,386.21,257.16Z"/>
        </g>
   </g>
</svg>